<?xml version="1.0" standalone="no"?>
<!DOCTYPE svg PUBLIC "-//W3C//DTD SVG 20010904//EN"
 "http://www.w3.org/TR/2001/REC-SVG-20010904/DTD/svg10.dtd">
<svg version="1.0" xmlns="http://www.w3.org/2000/svg"
 width="240.000000pt" height="240.000000pt" viewBox="0 0 240.000000 240.000000"
 preserveAspectRatio="xMidYMid meet">
<metadata>
Created by potrace 1.16, written by Peter Selinger 2001-2019
</metadata><g><rect x="0" y="0" width="240" height="240" fill="#ffffff" />
<g transform="translate(0.000000,240.000000) scale(0.050000,-0.050000)"
fill="#000000" stroke="none">
<path d="M420 3960 l0 -420 420 0 420 0 0 420 0 420 -420 0 -420 0 0 -420z
m720 0 l0 -300 -300 0 -300 0 0 300 0 300 300 0 300 0 0 -300z"/>
<path d="M660 3960 l0 -180 180 0 180 0 0 180 0 180 -180 0 -180 0 0 -180z"/>
<path d="M1380 4320 l0 -60 60 0 60 0 0 -60 0 -60 60 0 60 0 0 -60 0 -60 60 0
60 0 0 120 0 120 120 0 120 0 0 60 0 60 -120 0 -120 0 0 -60 0 -60 -120 0
-120 0 0 60 0 60 -60 0 -60 0 0 -60z"/>
<path d="M2220 4320 l0 -60 60 0 60 0 0 -60 0 -60 -60 0 -60 0 0 -60 0 -60 60
0 60 0 0 -60 0 -60 -120 0 -120 0 0 -60 0 -60 60 0 60 0 0 -60 0 -60 -60 0
-60 0 0 -60 0 -60 -60 0 -60 0 0 120 0 120 -60 0 -60 0 0 60 0 60 60 0 60 0 0
120 0 120 -60 0 -60 0 0 -120 0 -120 -60 0 -60 0 0 -60 0 -60 -60 0 -60 0 0
60 0 60 -60 0 -60 0 0 -60 0 -60 60 0 60 0 0 -180 0 -180 -60 0 -60 0 0 120 0
120 -60 0 -60 0 0 -120 0 -120 60 0 60 0 0 -120 0 -120 60 0 60 0 0 -60 0 -60
-120 0 -120 0 0 120 0 120 -60 0 -60 0 0 60 0 60 -60 0 -60 0 0 -60 0 -60 -60
0 -60 0 0 60 0 60 -120 0 -120 0 0 -60 0 -60 -60 0 -60 0 0 60 0 60 -120 0
-120 0 0 -60 0 -60 120 0 120 0 0 -60 0 -60 -120 0 -120 0 0 -60 0 -60 60 0
60 0 0 -60 0 -60 -60 0 -60 0 0 -120 0 -120 60 0 60 0 0 -60 0 -60 60 0 60 0
0 -120 0 -120 -60 0 -60 0 0 -60 0 -60 -60 0 -60 0 0 -60 0 -60 60 0 60 0 0
60 0 60 60 0 60 0 0 -120 0 -120 -120 0 -120 0 0 -300 0 -300 480 0 480 0 0
-60 0 -60 60 0 60 0 0 60 0 60 60 0 60 0 0 -60 0 -60 60 0 60 0 0 120 0 120
-180 0 -180 0 0 180 0 180 120 0 120 0 0 60 0 60 -120 0 -120 0 0 60 0 60 120
0 120 0 0 60 0 60 -240 0 -240 0 0 60 0 60 60 0 60 0 0 60 0 60 60 0 60 0 0
-60 0 -60 180 0 180 0 0 -120 0 -120 60 0 60 0 0 -120 0 -120 120 0 120 0 0
-180 0 -180 -60 0 -60 0 0 -60 0 -60 -60 0 -60 0 0 -60 0 -60 60 0 60 0 0 60
0 60 120 0 120 0 0 -60 0 -60 -60 0 -60 0 0 -60 0 -60 -120 0 -120 0 0 -60 0
-60 -60 0 -60 0 0 60 0 60 -60 0 -60 0 0 -60 0 -60 -120 0 -120 0 0 -120 0
-120 60 0 60 0 0 -60 0 -60 -60 0 -60 0 0 -120 0 -120 120 0 120 0 0 60 0 60
60 0 60 0 0 -60 0 -60 60 0 60 0 0 120 0 120 60 0 60 0 0 -120 0 -120 60 0 60
0 0 120 0 120 120 0 120 0 0 -60 0 -60 -60 0 -60 0 0 -60 0 -60 60 0 60 0 0
60 0 60 60 0 60 0 0 -60 0 -60 120 0 120 0 0 120 0 120 60 0 60 0 0 120 0 120
60 0 60 0 0 60 0 60 -120 0 -120 0 0 60 0 60 240 0 240 0 0 -60 0 -60 -60 0
-60 0 0 -240 0 -240 60 0 60 0 0 -60 0 -60 120 0 120 0 0 60 0 60 60 0 60 0 0
-60 0 -60 240 0 240 0 0 60 0 60 180 0 180 0 0 180 0 180 -240 0 -240 0 0 60
0 60 240 0 240 0 0 60 0 60 -120 0 -120 0 0 60 0 60 60 0 60 0 0 120 0 120
-60 0 -60 0 0 60 0 60 120 0 120 0 0 60 0 60 -60 0 -60 0 0 60 0 60 -60 0 -60
0 0 -120 0 -120 -60 0 -60 0 0 -60 0 -60 -60 0 -60 0 0 120 0 120 60 0 60 0 0
60 0 60 -120 0 -120 0 0 60 0 60 60 0 60 0 0 60 0 60 -60 0 -60 0 0 60 0 60
60 0 60 0 0 60 0 60 60 0 60 0 0 60 0 60 60 0 60 0 0 -120 0 -120 60 0 60 0 0
-60 0 -60 -120 0 -120 0 0 -60 0 -60 180 0 180 0 0 300 0 300 -60 0 -60 0 0
-60 0 -60 -60 0 -60 0 0 60 0 60 -60 0 -60 0 0 -60 0 -60 -60 0 -60 0 0 120 0
120 -60 0 -60 0 0 60 0 60 -60 0 -60 0 0 60 0 60 -60 0 -60 0 0 -60 0 -60 -60
0 -60 0 0 -60 0 -60 -60 0 -60 0 0 120 0 120 60 0 60 0 0 120 0 120 60 0 60 0
0 -60 0 -60 120 0 120 0 0 -60 0 -60 180 0 180 0 0 -60 0 -60 120 0 120 0 0
60 0 60 -120 0 -120 0 0 60 0 60 120 0 120 0 0 60 0 60 -60 0 -60 0 0 60 0 60
60 0 60 0 0 60 0 60 -60 0 -60 0 0 -60 0 -60 -120 0 -120 0 0 -60 0 -60 60 0
60 0 0 -60 0 -60 -180 0 -180 0 0 60 0 60 60 0 60 0 0 60 0 60 -120 0 -120 0
0 60 0 60 -60 0 -60 0 0 -60 0 -60 -60 0 -60 0 0 60 0 60 -60 0 -60 0 0 60 0
60 60 0 60 0 0 60 0 60 -60 0 -60 0 0 60 0 60 -60 0 -60 0 0 60 0 60 -60 0
-60 0 0 60 0 60 60 0 60 0 0 60 0 60 -120 0 -120 0 0 -60 0 -60 -60 0 -60 0 0
120 0 120 -60 0 -60 0 0 60 0 60 -240 0 -240 0 0 -60z m480 -120 l0 -60 -60 0
-60 0 0 -60 0 -60 -60 0 -60 0 0 120 0 120 120 0 120 0 0 -60z m120 -240 l0
-60 60 0 60 0 0 -60 0 -60 60 0 60 0 0 -120 0 -120 60 0 60 0 0 60 0 60 60 0
60 0 0 -60 0 -60 -60 0 -60 0 0 -60 0 -60 -60 0 -60 0 0 -60 0 -60 -60 0 -60
0 0 -60 0 -60 60 0 60 0 0 -60 0 -60 60 0 60 0 0 -180 0 -180 60 0 60 0 0 -60
0 -60 -60 0 -60 0 0 -60 0 -60 60 0 60 0 0 -60 0 -60 120 0 120 0 0 -180 0
-180 60 0 60 0 0 -60 0 -60 60 0 60 0 0 -180 0 -180 -60 0 -60 0 0 60 0 60
-60 0 -60 0 0 -60 0 -60 -120 0 -120 0 0 -120 0 -120 -300 0 -300 0 0 -60 0
-60 -60 0 -60 0 0 -120 0 -120 60 0 60 0 0 -120 0 -120 -60 0 -60 0 0 -60 0
-60 -60 0 -60 0 0 60 0 60 60 0 60 0 0 120 0 120 -60 0 -60 0 0 120 0 120 -60
0 -60 0 0 180 0 180 -60 0 -60 0 0 60 0 60 60 0 60 0 0 60 0 60 60 0 60 0 0
60 0 60 -120 0 -120 0 0 120 0 120 -60 0 -60 0 0 -60 0 -60 -60 0 -60 0 0 60
0 60 -60 0 -60 0 0 60 0 60 180 0 180 0 0 -60 0 -60 60 0 60 0 0 60 0 60 120
0 120 0 0 60 0 60 -60 0 -60 0 0 180 0 180 -60 0 -60 0 0 120 0 120 -60 0 -60
0 0 -60 0 -60 -60 0 -60 0 0 360 0 360 60 0 60 0 0 60 0 60 60 0 60 0 0 -60 0
-60 -60 0 -60 0 0 -60 0 -60 60 0 60 0 0 -120 0 -120 -60 0 -60 0 0 -60 0 -60
60 0 60 0 0 -60 0 -60 120 0 120 0 0 60 0 60 60 0 60 0 0 60 0 60 60 0 60 0 0
60 0 60 60 0 60 0 0 180 0 180 -60 0 -60 0 0 -60 0 -60 -60 0 -60 0 0 -120 0
-120 -60 0 -60 0 0 60 0 60 -60 0 -60 0 0 240 0 240 60 0 60 0 0 -60 0 -60
120 0 120 0 0 60 0 60 -60 0 -60 0 0 60 0 60 60 0 60 0 0 -60z m-960 -300 l0
-120 60 0 60 0 0 -120 0 -120 -60 0 -60 0 0 -60 0 -60 60 0 60 0 0 -60 0 -60
-60 0 -60 0 0 60 0 60 -120 0 -120 0 0 60 0 60 120 0 120 0 0 120 0 120 -60 0
-60 0 0 120 0 120 60 0 60 0 0 -120z m-600 -420 l0 -60 -60 0 -60 0 0 60 0 60
60 0 60 0 0 -60z m2400 0 l0 -60 -60 0 -60 0 0 60 0 60 60 0 60 0 0 -60z
m-2760 -300 l0 -240 60 0 60 0 0 60 0 60 120 0 120 0 0 -60 0 -60 -60 0 -60 0
0 -60 0 -60 60 0 60 0 0 -60 0 -60 -60 0 -60 0 0 -60 0 -60 -60 0 -60 0 0 60
0 60 -120 0 -120 0 0 60 0 60 60 0 60 0 0 60 0 60 -60 0 -60 0 0 180 0 180
-60 0 -60 0 0 60 0 60 120 0 120 0 0 -240z m480 60 l0 -60 -180 0 -180 0 0 60
0 60 180 0 180 0 0 -60z m-720 -180 l0 -120 -60 0 -60 0 0 120 0 120 60 0 60
0 0 -120z m1080 60 l0 -60 120 0 120 0 0 -60 0 -60 -120 0 -120 0 0 -60 0 -60
-60 0 -60 0 0 -60 0 -60 -60 0 -60 0 0 60 0 60 -60 0 -60 0 0 60 0 60 120 0
120 0 0 120 0 120 60 0 60 0 0 -60z m1920 -120 l0 -60 60 0 60 0 0 -120 0
-120 -60 0 -60 0 0 120 0 120 -60 0 -60 0 0 -120 0 -120 -60 0 -60 0 0 120 0
120 60 0 60 0 0 60 0 60 60 0 60 0 0 -60z m-1440 -120 l0 -60 60 0 60 0 0 -60
0 -60 -120 0 -120 0 0 -60 0 -60 -180 0 -180 0 0 60 0 60 60 0 60 0 0 60 0 60
120 0 120 0 0 60 0 60 60 0 60 0 0 -60z m-1080 -480 l0 -60 60 0 60 0 0 -60 0
-60 -60 0 -60 0 0 -60 0 -60 60 0 60 0 0 -60 0 -60 -60 0 -60 0 0 -60 0 -60
60 0 60 0 0 -60 0 -60 -60 0 -60 0 0 60 0 60 -60 0 -60 0 0 -60 0 -60 -60 0
-60 0 0 60 0 60 60 0 60 0 0 60 0 60 -60 0 -60 0 0 60 0 60 -60 0 -60 0 0
-180 0 -180 -120 0 -120 0 0 120 0 120 60 0 60 0 0 120 0 120 120 0 120 0 0
60 0 60 60 0 60 0 0 60 0 60 60 0 60 0 0 -60z m3000 -720 l0 -60 -60 0 -60 0
0 -60 0 -60 -60 0 -60 0 0 60 0 60 60 0 60 0 0 60 0 60 60 0 60 0 0 -60z
m-360 -240 l0 -180 -180 0 -180 0 0 180 0 180 180 0 180 0 0 -180z m-2040
-240 l0 -60 -60 0 -60 0 0 -60 0 -60 120 0 120 0 0 60 0 60 60 0 60 0 0 60 0
60 120 0 120 0 0 -120 0 -120 -180 0 -180 0 0 -60 0 -60 -120 0 -120 0 0 60 0
60 -60 0 -60 0 0 60 0 60 60 0 60 0 0 60 0 60 60 0 60 0 0 -60z m1680 -240 l0
-180 -120 0 -120 0 0 180 0 180 120 0 120 0 0 -180z m240 120 l0 -60 60 0 60
0 0 60 0 60 60 0 60 0 0 -60 0 -60 -60 0 -60 0 0 -60 0 -60 60 0 60 0 0 -60 0
-60 -120 0 -120 0 0 60 0 60 -60 0 -60 0 0 120 0 120 60 0 60 0 0 -60z"/>
<path d="M2580 3600 l0 -60 60 0 60 0 0 60 0 60 -60 0 -60 0 0 -60z"/>
<path d="M2820 3000 l0 -60 -60 0 -60 0 0 -60 0 -60 -60 0 -60 0 0 -60 0 -60
60 0 60 0 0 -60 0 -60 -60 0 -60 0 0 -120 0 -120 60 0 60 0 0 -120 0 -120 -60
0 -60 0 0 -60 0 -60 -60 0 -60 0 0 -60 0 -60 120 0 120 0 0 -60 0 -60 60 0 60
0 0 -60 0 -60 -60 0 -60 0 0 -60 0 -60 -60 0 -60 0 0 60 0 60 -60 0 -60 0 0
-60 0 -60 60 0 60 0 0 -60 0 -60 60 0 60 0 0 60 0 60 60 0 60 0 0 -60 0 -60
60 0 60 0 0 180 0 180 60 0 60 0 0 -120 0 -120 120 0 120 0 0 120 0 120 60 0
60 0 0 -60 0 -60 60 0 60 0 0 60 0 60 -60 0 -60 0 0 60 0 60 60 0 60 0 0 60 0
60 -120 0 -120 0 0 120 0 120 -60 0 -60 0 0 120 0 120 -60 0 -60 0 0 -60 0
-60 -180 0 -180 0 0 120 0 120 60 0 60 0 0 60 0 60 -60 0 -60 0 0 60 0 60 120
0 120 0 0 -120 0 -120 60 0 60 0 0 120 0 120 -60 0 -60 0 0 120 0 120 -60 0
-60 0 0 -60z m360 -840 l0 -60 -60 0 -60 0 0 -60 0 -60 60 0 60 0 0 -60 0 -60
-120 0 -120 0 0 -60 0 -60 -60 0 -60 0 0 60 0 60 -60 0 -60 0 0 120 0 120 60
0 60 0 0 60 0 60 180 0 180 0 0 -60z"/>
<path d="M2460 1200 l0 -60 60 0 60 0 0 60 0 60 -60 0 -60 0 0 -60z"/>
<path d="M1020 2520 l0 -60 60 0 60 0 0 60 0 60 -60 0 -60 0 0 -60z"/>
<path d="M1020 2040 l0 -60 -60 0 -60 0 0 -60 0 -60 60 0 60 0 0 60 0 60 60 0
60 0 0 60 0 60 -60 0 -60 0 0 -60z"/>
<path d="M3540 1200 l0 -60 60 0 60 0 0 60 0 60 -60 0 -60 0 0 -60z"/>
<path d="M2940 4320 l0 -60 60 0 60 0 0 60 0 60 -60 0 -60 0 0 -60z"/>
<path d="M3540 3960 l0 -420 420 0 420 0 0 420 0 420 -420 0 -420 0 0 -420z
m720 0 l0 -300 -300 0 -300 0 0 300 0 300 300 0 300 0 0 -300z"/>
<path d="M3780 3960 l0 -180 180 0 180 0 0 180 0 180 -180 0 -180 0 0 -180z"/>
<path d="M3300 4020 l0 -120 60 0 60 0 0 120 0 120 -60 0 -60 0 0 -120z"/>
<path d="M1500 1680 l0 -60 120 0 120 0 0 60 0 60 -120 0 -120 0 0 -60z"/>
<path d="M1860 1680 l0 -60 60 0 60 0 0 60 0 60 -60 0 -60 0 0 -60z"/>
<path d="M420 840 l0 -420 420 0 420 0 0 420 0 420 -420 0 -420 0 0 -420z
m720 0 l0 -300 -300 0 -300 0 0 300 0 300 300 0 300 0 0 -300z"/>
<path d="M660 840 l0 -180 180 0 180 0 0 180 0 180 -180 0 -180 0 0 -180z"/>
</g>
</g></svg>
